<svg width="2655" height="2908" viewBox="0 0 2655 2908" fill="none" xmlns="http://www.w3.org/2000/svg">
<path d="M2012.18 240.091L1488.45 1042.55L2306.22 496.543L2521.08 45L2012.18 240.091Z" fill="#252525"/>
<path d="M1096 2273.29L1155.98 2155L1414.5 2155L1492 2273.29L1267.99 2908L1096 2273.29Z" fill="#252525"/>
<path d="M1054 1646.5L1320 1058L1534.5 1646.5L1281 2762L1054 1646.5Z" fill="#393939" stroke="black"/>
<path d="M1280 1458L1280 2761L1054 1647L1280 1458Z" fill="url(#paint0_linear)"/>
<path d="M377.641 519.216L1148.88 1087.92L650.464 240.295L211.927 4.0181e-05L377.641 519.216Z" fill="#252525"/>
<path d="M579.176 951.25L1783.26 1853.26L1010.72 516.443L325.095 134L579.176 951.25Z" fill="url(#paint1_linear)"/>
<path d="M1010.93 516L323.926 133L1783.93 1854L1010.93 516Z" fill="url(#paint2_linear)"/>
<path d="M1594.4 522.895L822.848 1814.46L2071.83 906.751L2380.7 184.988L1594.4 522.895Z" fill="url(#paint3_linear)"/>
<path d="M2072.29 906.887L2381.57 183.698L822.182 1815.18L2072.29 906.887Z" fill="url(#paint4_linear)"/>
<path d="M1898 2032L1634.13 1898L1848.44 1940.01L1798.87 1605L1535 1337L1898 1554.75L1898 2032Z" fill="#393939"/>
<path d="M701 2032L964.873 1898L750.563 1940.01L800.127 1605L1064 1337L701 1554.75L701 2032Z" fill="#393939"/>
<path d="M1308 949L1308 328L1265.48 328L1265.48 561L1101.59 483L1079.13 303L1174.69 328L1039 182L1039 483L1308 949Z" fill="#323232"/>
<path d="M1308 949L1308 328L1350.52 328L1350.52 561L1514.41 483L1536.86 303L1441.31 328L1577 182L1577 483L1308 949Z" fill="url(#paint5_linear)"/>
<path d="M1351 328L1308 328L1308 295.282L1351 253L1351 328Z" fill="#838383"/>
<path d="M1265 328L1308 328L1308 295.282L1265 253L1265 328Z" fill="black"/>
<rect x="1308.01" y="125.639" width="286.195" height="286.195" transform="rotate(45 1308.01 125.639)" fill="url(#paint6_linear)" stroke="#393939" stroke-width="90"/>
<path d="M153.062 1248.19H83.0625L63.5312 1291H0.09375L116.344 1062.56H194.938L214.156 1291H154.625L153.062 1248.19ZM105.406 1199.44H151.188L148.531 1133.19L148.219 1119.75C148.219 1111.94 148.427 1105.11 148.844 1099.28C146.344 1108.24 143.167 1116.89 139.312 1125.22L105.406 1199.44Z" fill="#8E8E8E"/>
<path d="M839.781 1291H704.156L752.438 1062.56H888.062L877.906 1112.09H803.375L796.031 1148.03H865.406L854.156 1197.56H784.781L775.875 1240.69H850.406L839.781 1291Z" fill="#8E8E8E"/>
<path d="M318.781 1291H183.156L231.438 1062.56H367.062L356.906 1112.09H282.375L275.031 1148.03H344.406L333.156 1197.56H263.781L254.875 1240.69H329.406L318.781 1291Z" fill="#8E8E8E"/>
<path d="M443.969 1291H382.875L419.906 1113.03H370.375L381.156 1062.56H541.781L530.688 1113.03H481L443.969 1291Z" fill="#8E8E8E"/>
<path d="M938.906 1207.88L921.25 1291H860.156L908.438 1062.56H968.906C995.156 1062.56 1015.26 1067.77 1029.22 1078.19C1043.18 1088.6 1050.16 1104.28 1050.16 1125.22C1050.16 1141.47 1046.46 1155.64 1039.06 1167.72C1031.67 1179.8 1020.68 1189.02 1006.09 1195.38L1041.09 1276L1047.34 1291H980.781L950.312 1207.88H938.906ZM948.75 1161.47H956.719C966.615 1161.47 974.479 1158.66 980.312 1153.03C986.146 1147.3 989.062 1139.33 989.062 1129.12C989.062 1122.67 987.24 1117.77 983.594 1114.44C980.052 1111 974.844 1109.28 967.969 1109.28H959.688L948.75 1161.47Z" fill="#8E8E8E"/>
<path d="M682.719 1291H621.625L641.156 1197.88H587.094L567.25 1291H506.156L554.438 1062.56H615.531L598.031 1147.25H652.406L669.906 1062.56H731.156L682.719 1291Z" fill="#8E8E8E"/>
<path d="M1725.97 1306H1664.88L1701.91 1128.03H1652.38L1663.16 1077.56H1823.78L1812.69 1128.03H1763L1725.97 1306Z" fill="#8E8E8E"/>
<path d="M2628.66 1235.84C2628.66 1258.97 2621 1276.99 2605.69 1289.91C2590.38 1302.72 2569.02 1309.12 2541.62 1309.12C2530.17 1309.12 2519.33 1307.88 2509.12 1305.38C2498.92 1302.77 2490.11 1299.02 2482.72 1294.12V1239.44C2491.47 1244.96 2501.47 1249.59 2512.72 1253.34C2524.07 1257.09 2534.33 1258.97 2543.5 1258.97C2551.21 1258.97 2557.04 1257.35 2561 1254.12C2564.96 1250.9 2566.94 1246.31 2566.94 1240.38C2566.94 1237.56 2566.31 1234.96 2565.06 1232.56C2563.81 1230.06 2562.04 1227.61 2559.75 1225.22C2557.46 1222.72 2551.31 1217.3 2541.31 1208.97C2529.12 1199.18 2520.27 1189.18 2514.75 1178.97C2509.23 1168.76 2506.47 1157.56 2506.47 1145.38C2506.47 1131.73 2509.85 1119.49 2516.62 1108.66C2523.5 1097.72 2533.14 1089.28 2545.53 1083.34C2558.03 1077.3 2571.99 1074.28 2587.41 1074.28C2612.3 1074.28 2634.7 1079.85 2654.59 1091L2633.5 1137.41C2615.69 1128.24 2600.53 1123.66 2588.03 1123.66C2581.36 1123.66 2576.21 1125.11 2572.56 1128.03C2569.02 1130.95 2567.25 1135.22 2567.25 1140.84C2567.25 1145.95 2568.97 1150.74 2572.41 1155.22C2575.95 1159.59 2582.61 1165.48 2592.41 1172.88C2604.7 1181.94 2613.81 1191.47 2619.75 1201.47C2625.69 1211.47 2628.66 1222.93 2628.66 1235.84Z" fill="#8E8E8E"/>
<path d="M1614.66 1235.84C1614.66 1258.97 1607 1276.99 1591.69 1289.91C1576.38 1302.72 1555.02 1309.12 1527.62 1309.12C1516.17 1309.12 1505.33 1307.88 1495.12 1305.38C1484.92 1302.77 1476.11 1299.02 1468.72 1294.12V1239.44C1477.47 1244.96 1487.47 1249.59 1498.72 1253.34C1510.07 1257.09 1520.33 1258.97 1529.5 1258.97C1537.21 1258.97 1543.04 1257.35 1547 1254.12C1550.96 1250.9 1552.94 1246.31 1552.94 1240.38C1552.94 1237.56 1552.31 1234.96 1551.06 1232.56C1549.81 1230.06 1548.04 1227.61 1545.75 1225.22C1543.46 1222.72 1537.31 1217.3 1527.31 1208.97C1515.12 1199.18 1506.27 1189.18 1500.75 1178.97C1495.23 1168.76 1492.47 1157.56 1492.47 1145.38C1492.47 1131.73 1495.85 1119.49 1502.62 1108.66C1509.5 1097.72 1519.14 1089.28 1531.53 1083.34C1544.03 1077.3 1557.99 1074.28 1573.41 1074.28C1598.3 1074.28 1620.7 1079.85 1640.59 1091L1619.5 1137.41C1601.69 1128.24 1586.53 1123.66 1574.03 1123.66C1567.36 1123.66 1562.21 1125.11 1558.56 1128.03C1555.02 1130.95 1553.25 1135.22 1553.25 1140.84C1553.25 1145.95 1554.97 1150.74 1558.41 1155.22C1561.95 1159.59 1568.61 1165.48 1578.41 1172.88C1590.7 1181.94 1599.81 1191.47 1605.75 1201.47C1611.69 1211.47 1614.66 1222.93 1614.66 1235.84Z" fill="#8E8E8E"/>
<path d="M2012.56 1077.56L1981.47 1223.19C1975.32 1252.46 1963.6 1274.12 1946.31 1288.19C1929.02 1302.15 1905.53 1309.12 1875.84 1309.12C1861.89 1309.12 1849.54 1306.26 1838.81 1300.53C1828.19 1294.8 1819.96 1286.78 1814.12 1276.47C1808.4 1266.16 1805.53 1254.65 1805.53 1241.94C1805.53 1235.27 1806.16 1228.55 1807.41 1221.78L1838.5 1077.56H1899.59L1869.12 1220.22C1867.67 1227.3 1866.94 1233.29 1866.94 1238.19C1866.94 1251.42 1873.24 1258.03 1885.84 1258.03C1895.64 1258.03 1903.29 1254.7 1908.81 1248.03C1914.44 1241.26 1918.71 1230.95 1921.62 1217.09L1951.47 1077.56H2012.56Z" fill="#8E8E8E"/>
<path d="M2183.91 1163.97C2183.91 1193.14 2178.75 1218.45 2168.44 1239.91C2158.12 1261.26 2143.12 1277.61 2123.44 1288.97C2103.85 1300.32 2080.62 1306 2053.75 1306H1980.16L2028.44 1077.56H2093.44C2122.19 1077.56 2144.43 1085.11 2160.16 1100.22C2175.99 1115.22 2183.91 1136.47 2183.91 1163.97ZM2062.97 1255.38C2074.43 1255.38 2084.64 1251.73 2093.59 1244.44C2102.66 1237.15 2109.69 1226.78 2114.69 1213.34C2119.69 1199.8 2122.19 1184.39 2122.19 1167.09C2122.19 1154.07 2119.38 1144.23 2113.75 1137.56C2108.12 1130.79 2100.26 1127.41 2090.16 1127.41H2079.06L2052.19 1255.38H2062.97Z" fill="#8E8E8E"/>
<path d="M2171.84 1306L2220.12 1077.56H2282.16L2233.88 1306H2171.84Z" fill="#8E8E8E"/>
<path d="M2397.16 1073.97C2424.24 1073.97 2445.28 1081.73 2460.28 1097.25C2475.39 1112.67 2482.94 1134.23 2482.94 1161.94C2482.94 1189.65 2477.73 1215.01 2467.31 1238.03C2457 1260.95 2442.73 1278.55 2424.5 1290.84C2406.27 1303.03 2385.12 1309.12 2361.06 1309.12C2333.04 1309.12 2311.38 1301.36 2296.06 1285.84C2280.85 1270.32 2273.25 1248.76 2273.25 1221.16C2273.25 1193.55 2278.61 1168.19 2289.34 1145.06C2300.07 1121.94 2314.66 1104.33 2333.09 1092.25C2351.64 1080.06 2372.99 1073.97 2397.16 1073.97ZM2421.22 1162.56C2421.22 1150.69 2418.72 1141.42 2413.72 1134.75C2408.72 1127.98 2401.48 1124.59 2392 1124.59C2381.69 1124.59 2372.21 1128.97 2363.56 1137.72C2354.92 1146.47 2347.99 1158.5 2342.78 1173.81C2337.68 1189.12 2335.12 1204.8 2335.12 1220.84C2335.12 1246.05 2345.54 1258.66 2366.38 1258.66C2376.27 1258.66 2385.44 1254.33 2393.88 1245.69C2402.42 1237.04 2409.08 1225.38 2413.88 1210.69C2418.77 1196 2421.22 1179.96 2421.22 1162.56Z" fill="#8E8E8E"/>
<defs>
<linearGradient id="paint0_linear" x1="1167" y1="1458" x2="1167" y2="2761" gradientUnits="userSpaceOnUse">
<stop/>
<stop offset="1" stop-color="#FFE9E9" stop-opacity="0"/>
<stop offset="1" stop-color="#2B2A2A"/>
</linearGradient>
<linearGradient id="paint1_linear" x1="1698.5" y1="1806.5" x2="286" y2="473.5" gradientUnits="userSpaceOnUse">
<stop stop-color="#393939"/>
<stop offset="0.995921" stop-color="#1E1E1E"/>
</linearGradient>
<linearGradient id="paint2_linear" x1="281.926" y1="133" x2="1270.93" y2="1222" gradientUnits="userSpaceOnUse">
<stop stop-color="#383838"/>
<stop offset="1"/>
</linearGradient>
<linearGradient id="paint3_linear" x1="860.516" y1="1725.29" x2="2038.98" y2="181.504" gradientUnits="userSpaceOnUse">
<stop stop-color="#393939"/>
<stop offset="0.995921" stop-color="#1E1E1E"/>
</linearGradient>
<linearGradient id="paint4_linear" x1="2377.2" y1="141.927" x2="1397.25" y2="1239.08" gradientUnits="userSpaceOnUse">
<stop stop-color="#383838"/>
<stop offset="1"/>
</linearGradient>
<linearGradient id="paint5_linear" x1="1577" y1="182" x2="1419.5" y2="944.247" gradientUnits="userSpaceOnUse">
<stop stop-color="#0E0C0C"/>
<stop offset="1" stop-color="#3F3F3F" stop-opacity="0.84"/>
</linearGradient>
<linearGradient id="paint6_linear" x1="1434.22" y1="188.224" x2="1644.23" y2="398.235" gradientUnits="userSpaceOnUse">
<stop/>
<stop offset="1"/>
</linearGradient>
</defs>
</svg>
