<svg width="1000" height="668" viewBox="0 0 1000 668" fill="none" xmlns="http://www.w3.org/2000/svg">
<rect width="1000" height="667" fill="white"/>
<g clip-path="url(#clip0)">
<path d="M979.52 93.895C968.161 100.588 954.413 110.362 951.028 123.107C937.494 114.615 919.733 113.282 905.081 119.682C890.441 126.067 875.213 139.788 872.24 155.494C851.24 144.135 818.6 151.642 804.986 171.255C799.348 166.495 788.441 164.682 782.281 168.762C767.801 155.282 745.854 150.402 727.026 156.467C708.2 162.535 693.546 179.548 689.681 198.948C678.6 189.882 663.373 195.095 656.04 207.375C646.026 202.095 631.668 204.282 623.6 212.228C612.014 198.362 592.348 191.815 574.76 195.948C557.174 200.095 541.266 216.375 537.08 233.948C530.668 228.428 517.908 232.255 515.24 240.282C499.948 228.602 475.428 231.815 463.654 247.055C539.081 281.682 623.853 282.668 706.76 286.175C788.813 289.642 875.828 286.788 959.774 283.828C973.266 283.348 986.693 282.868 1000 282.415V87.175C992.8 87.9336 985.76 90.2016 979.52 93.895" fill="url(#paint0_linear)"/>
<path d="M0 258.281C98.9467 262.828 198.281 240.014 294.495 215.561C290.827 204.601 282.333 195.361 271.733 190.788C261.135 186.228 244.987 183.334 234.508 188.188C235.108 182.908 232.681 177.388 228.388 174.254C224.107 171.121 218.121 170.454 213.268 172.614C208.121 158.628 195.628 147.601 181.121 144.228C166.615 140.853 149.655 144.32 138.881 154.601C137.415 148.588 128.107 143.148 122.175 144.921C116.36 134.801 106.081 127.348 94.6547 124.948C83.2147 122.561 69.1867 123.481 59.788 130.428C52.068 122.788 40.9867 117.534 30.708 121.04C25.16 107.841 13.4933 97.6809 0 93.0142V258.281Z" fill="url(#paint1_linear)"/>
<path d="M93.4933 173.308C58.3987 182.615 29.4267 203.881 0 223.961V667.668H1000V251.601C975.32 256.188 947.84 272.575 925.133 268.855C878.308 261.201 832.04 219.748 788.773 201.163C739.453 179.988 699.373 193.361 649.733 213.868C600.107 234.375 547.387 258.255 494.2 248.601C444.065 239.508 401.733 201.468 350.693 201.028C337.899 200.917 325.193 203.239 312.523 205.557C296.224 208.543 279.98 211.527 263.68 209.335C214.329 202.723 169.524 169.856 120.244 169.86C111.488 169.861 102.583 170.9 93.4933 173.308" fill="url(#paint2_linear)"/>
<path d="M976.519 272.439C970.481 274.984 964.721 278.946 959.774 283.826C951.893 291.571 946.026 301.626 944.146 311.892C934.506 307.398 918.786 317.212 917.121 327.719C907.601 321.772 895.401 320.332 884.746 323.892C874.107 327.452 864.093 334.906 860.067 345.371C852.879 331.372 829.879 326.131 816.281 334.079C809.479 326.532 795.134 320.759 786.079 325.372C777.961 309.666 759.986 299.639 742.361 300.959C724.733 302.279 708.679 312.931 702.986 329.666C693.574 324.559 679.026 328.719 674.093 338.226C654.121 325.051 625.294 327.412 607.721 343.638V411.371L953.813 407.399L999.999 406.879V268.692C998.733 268.602 997.462 268.555 996.191 268.555C989.465 268.555 982.733 269.836 976.519 272.439" fill="url(#paint3_linear)"/>
<path d="M326.627 258.855C295.2 260.083 264.8 273.255 236.053 287.028C233.8 288.108 231.56 289.188 229.32 290.268C228.133 290.828 226.96 291.415 225.773 291.975C150.507 328.415 75.2533 364.853 0 401.281V667.668H1000V418.335C994.56 418.603 989.067 419.001 983.56 419.401C973.067 420.161 962.52 420.869 952.227 420.401C949.2 420.269 946.185 420.043 943.213 419.681C929.627 418.027 916.92 413.735 904.708 407.96C897.32 404.467 890.132 400.441 883.04 396.135C862.84 383.868 843.465 369.293 823.04 358.335L821.667 352.321L820.573 357.028C816.653 354.989 812.68 353.095 808.653 351.376L806.893 343.721L805.613 349.309L804.761 345.615L803.88 349.441C792.32 344.988 780.293 342.135 767.48 341.855C756.453 341.615 745.387 343.361 734.345 345.548L732.667 338.268L730.84 346.255C730.025 346.413 729.213 346.589 728.4 346.747L726.853 340.001L725.132 347.443C705.28 351.628 685.64 355.881 666.72 351.308L665.88 347.681L665.147 350.923C664.773 350.815 664.399 350.708 664.04 350.601L662.293 343.041L660.799 349.575C659.68 349.188 658.601 348.775 657.52 348.335L656.308 343.041L655.307 347.375C654.52 347.015 653.733 346.641 652.96 346.255L650.921 337.388L649.92 341.761L648.547 335.828L646.92 342.893C645.465 342.001 644.025 341.068 642.6 340.108L642.213 338.401L641.935 339.641C638.201 337.055 634.601 334.253 631.04 331.361C619.481 321.989 608.359 311.775 594.692 305.721L593.84 302.028L593.132 305.068C592.56 304.828 591.987 304.588 591.4 304.361L589.56 296.375L588 303.148C581.973 301.161 575.8 299.96 569.507 299.347L568.107 293.281L566.76 299.121C565.72 299.055 564.679 298.988 563.641 298.948H564.787L562.653 289.668L561.148 296.175L558.12 283.015L555.027 296.428L554.187 292.748L552.775 298.881C536.025 299.375 518.76 302.281 501.627 303.481L499.987 296.375L498.307 303.695C498 303.708 497.707 303.735 497.413 303.748L495.72 296.375L493.987 303.893C487.467 304.121 480.987 304.015 474.587 303.335C458.147 301.603 442.708 296.188 427.547 289.695L426.107 283.468L424.933 288.575C408.413 281.361 392.187 273.055 375.333 267.055L374.027 261.388L372.92 266.201C372.64 266.108 372.347 266.015 372.065 265.921L369.493 254.735L367.28 264.388C359.68 262.081 351.947 260.323 343.96 259.441C338.88 258.868 333.827 258.668 328.8 258.775L327.72 254.108L326.627 258.855Z" fill="url(#paint4_linear)"/>
<path d="M910.084 469.939C839.856 476.224 768.591 471.913 699.804 456.931C693.204 455.508 686.644 453.968 680.097 452.34C623.687 438.28 569.78 417.296 516.476 394.545L515.828 391.729L515.295 394.043C511.013 392.213 506.736 390.371 502.463 388.521L501.064 382.449L499.92 387.419C499.757 387.349 499.593 387.277 499.431 387.207L498.928 385.021L498.516 386.809C451.289 366.315 404.364 344.896 356.424 326.129L355.663 322.819L355.027 325.579C354.568 325.4 354.111 325.216 353.651 325.037L352.072 318.179L350.749 323.924C349.527 323.451 348.303 322.983 347.077 322.515L346.08 318.179L345.243 321.811C344.363 321.475 343.485 321.132 342.604 320.799L340.697 312.519L339.692 316.889L338.328 310.965L336.581 318.552C335.328 318.085 334.077 317.612 332.823 317.151L331.991 313.537L331.289 316.584C315.256 310.704 298.888 305.22 282.296 300.239L280.931 294.303L279.744 299.459C277.005 298.645 274.251 297.873 271.501 297.091L269.556 288.643L268.549 293.015L267.187 287.091L265.289 295.328C261.993 294.417 258.684 293.543 255.373 292.677L254.679 289.663L254.065 292.328C253.437 292.165 252.812 291.999 252.184 291.837L250.151 283.009L248.337 290.888C244.32 289.883 240.295 288.905 236.26 287.971L234.513 280.383L232.94 287.22C230.552 286.679 228.169 286.116 225.777 285.601C215.719 283.435 205.617 281.512 195.496 279.841L194.153 274.011L192.908 279.423C192.291 279.324 191.675 279.22 191.057 279.124L189.881 274.011L188.784 278.772C186.568 278.432 184.349 278.104 182.132 277.789L180.933 272.583L179.807 277.472C134.868 271.304 89.7107 270.569 46.0933 277.692L44.8866 272.452L43.584 278.113C42.424 278.311 41.2653 278.505 40.108 278.715L39.0653 274.185L37.928 279.125C36.212 279.445 34.4973 279.772 32.7866 280.119L32.4893 278.827L32.1613 280.249C29.9933 280.692 27.8293 281.153 25.668 281.636L24.188 275.205L22.6907 281.713L19.6613 268.552L16.1213 283.924C10.7187 285.297 5.33733 286.789 0 288.436V667.668H1000V455.931C970.413 462.563 940.349 467.232 910.084 469.939Z" fill="#DE7E41"/>
<path d="M0 341.079V506.055H657.197C653.337 494.677 643.401 485.759 632.228 480.972C622.649 476.88 612.912 477.139 602.763 477.4C599.787 477.476 596.775 477.552 593.721 477.519C585.855 463.651 571.681 454.012 556.213 450.132C549.587 441.185 539.055 435.252 527.96 434.199C516.88 433.145 506.068 438.584 497.867 446.131C487.721 436.585 473.481 431.545 459.575 432.584C445.681 433.625 430.815 438.865 422.188 449.812C414.455 441.279 402.348 438.811 393.481 446.159C382.041 429.159 363.693 416.945 343.601 412.959C323.493 408.959 297.427 413.399 280.361 424.745C272.428 411.852 252.268 408.745 240.855 418.679C234.401 404.092 221.988 392.251 207.108 386.505C192.241 380.757 173.681 381.053 159.108 387.519C155.308 375.317 141.295 365.412 128.707 367.559C111.693 351.452 84.468 350.265 63.148 359.971C45.3013 347.561 23.54 341.064 1.824 341.063C1.21467 341.063 0.609333 341.068 0 341.079" fill="url(#paint5_linear)"/>
<path d="M976.398 329.615C962.186 343.175 951.626 360.028 936.306 372.455C920.88 385.001 902.613 391.788 883.04 396.135C855.641 402.241 825.692 403.589 797.44 409.203C786.798 411.308 776.4 414.028 766.466 417.828C742.88 426.869 722.706 441.748 703.2 457.668C702.065 458.588 700.933 459.521 699.798 460.455C696.293 463.335 692.8 466.255 689.321 469.148C663.946 490.295 638.56 511.228 606.906 521.161C562.613 535.081 513.106 524.96 468.506 537.976C442.973 545.429 421.106 559.747 400.586 576.468C397.666 578.855 394.773 581.281 391.906 583.733C356.16 614.401 323.585 650.615 281.293 667.668H1000V313.841C991.253 317.508 983.106 323.215 976.398 329.615Z" fill="url(#paint6_linear)"/>
<path d="M961.572 383.947C957.319 391.387 955.146 399.255 953.812 407.4C953.118 411.667 952.652 416 952.226 420.4C951.986 422.853 951.774 425.321 951.546 427.8C941.224 423.255 928.012 431.267 923.292 441.68C922.999 442.293 922.746 442.921 922.532 443.548C920.851 442.227 919.012 441.133 917.066 440.267C910.652 437.428 903.106 437.093 896.534 439.573C887.972 442.8 880.132 449.641 878.452 458.641C863.999 455.933 848.372 460.453 837.626 470.48C836.892 471.16 836.186 471.881 835.518 472.625C826.759 482.28 823.172 496.56 824.224 509.667C824.279 510.307 824.344 510.947 824.412 511.573C823.466 511.387 822.506 511.213 821.559 511.067C794.492 506.813 764.652 518.452 752.307 542.88C741.04 532.987 722.719 533.48 711.839 543.813C704.64 532.613 690.586 526.267 677.427 528.24C664.266 530.213 651.678 539.16 648.064 551.973C645.774 551.465 643.639 551.4 641.64 551.693C635.464 552.613 630.586 557.067 626.559 563.093C615.226 560.84 602.999 560.308 592.559 565.24C582.372 570.065 573.612 581.52 575.534 592.547C575.572 592.84 575.626 593.12 575.692 593.4C575.626 593.12 575.546 592.852 575.439 592.588C573.052 586.601 560.212 586.067 555.586 587.053C548.159 588.613 541.439 593.973 540.426 601.852C534.452 597.507 526.332 596.787 519.254 598.893C514.732 600.227 510.612 602.6 506.934 605.56C504.839 607.24 502.892 609.107 501.092 611.08C498.572 613.852 496.332 616.893 494.386 620.12C491.292 625.28 488.999 630.933 487.652 636.773H999.999V363.627C997.99 363.167 995.975 362.949 993.971 362.949C980.862 362.951 968.256 372.255 961.572 383.947" fill="url(#paint7_linear)"/>
<path d="M10.9907 396.623C7.38 397.737 3.71733 398.963 0 400.335V667.668H1000V594.599C997.213 593.427 994.444 592.267 991.671 591.119C934.949 567.583 878.244 544.047 821.539 520.524C812.257 516.677 802.991 512.829 793.724 508.984C788.285 506.725 782.811 504.471 777.32 502.219L774.957 491.953L773 500.453C772.287 500.161 771.573 499.868 770.859 499.577L766.624 481.183L763.111 496.444C760.583 495.427 758.061 494.405 755.525 493.396L752.713 481.183L750.368 491.368C748.62 490.677 746.869 489.989 745.116 489.304L740.221 468.045L737.887 478.192L734.721 464.443L730.305 483.619C727.408 482.527 724.499 481.46 721.591 480.392L720.012 473.531L718.68 479.32C708.944 475.773 699.159 472.356 689.324 469.151C662.715 460.469 638.164 454.087 613.969 450.457L612.707 444.977L611.528 450.095C604.332 449.069 597.161 448.291 589.973 447.771L586.304 431.839L583.969 441.984L580.804 428.235L576.459 447.108C569.296 446.92 562.089 446.981 554.792 447.327L551.772 434.205L548.669 447.684C548.424 447.7 548.177 447.723 547.933 447.739L541.261 418.761L534.296 449.015C531.532 449.332 528.749 449.683 525.947 450.079L524.225 442.609L522.384 450.609C515.072 451.725 507.629 453.091 500 454.751C430.333 469.912 362.264 495.616 291.973 483.232C291.609 483.168 291.252 483.089 290.889 483.024L289.092 475.212L287.445 482.361C277.829 480.364 268.543 477.461 259.484 473.92L254.823 453.671L251.657 467.428L249.864 459.641L247.725 468.931C208.669 451.06 173.228 422.728 133.112 404.923L131.727 398.901L130.591 403.825C122.628 400.397 114.477 397.395 106.072 394.985L103.949 385.763L102.077 393.895C96.5053 392.437 90.8187 391.249 85.0013 390.368L83.1787 382.449L81.816 388.371L77.6733 370.376L73.3747 389.049C71.416 388.903 69.4453 388.781 67.456 388.711L64.16 374.4L60.8907 388.607C57.2467 388.627 53.548 388.781 49.7947 389.069L48.896 385.171L47.9627 389.224C43.0613 389.653 38.064 390.32 32.9587 391.241L29.628 376.769L26.1507 391.872L19.1173 361.323L10.9907 396.623Z" fill="url(#paint8_linear)"/>
<path d="M990.813 406.988L988.68 416.255L986.56 407.027L986.48 406.709L986.4 407.027L983.56 419.401L982.601 423.575C968.48 428.335 954.72 434.988 941.253 442.388L939.535 434.881L937.292 444.601C933.347 446.815 929.428 449.108 925.533 451.413L923.293 441.681L920.012 427.455L917.067 440.268L912.72 459.149C911.84 459.681 910.96 460.228 910.08 460.761C907.36 462.428 904.64 464.081 901.947 465.721C898.893 467.588 895.84 469.428 892.773 471.269C889.76 473.068 886.733 474.869 883.708 476.643L882.6 471.841L881.6 467.495L880.573 471.948L878.84 479.495C860.867 489.976 842.667 500.041 824.225 509.668C823.333 510.135 822.453 510.601 821.56 511.068C821.547 511.068 821.547 511.081 821.535 511.081C779.201 533.108 735.72 552.881 691.333 570.348L688.907 559.788L686 572.429C684.6 572.975 683.225 573.521 681.827 574.055L675.493 546.521L667.933 579.321C650.253 585.907 632.44 592.121 614.493 597.961C579.587 609.335 540.679 619.081 506.935 605.561C505.505 604.988 504.079 604.375 502.68 603.721C498.373 601.709 494.213 599.309 490.133 596.748L482.16 562.148L476.307 587.575C473.947 585.989 471.573 584.429 469.187 582.921L467.64 576.241L466.48 581.268C458.173 576.293 449.547 572.321 439.947 571.108C426.707 569.429 413.707 573.361 400.587 576.468C397.693 577.161 394.813 577.801 391.907 578.347C387.573 579.161 383.213 579.735 378.827 579.828C353.6 580.413 333.853 563.321 314.373 549.521C293.959 535.055 272.88 519.561 252.28 506.601C236.6 496.733 220.267 488.455 203.453 482.508L201.093 472.268L199.067 481.027C185.827 476.695 172.28 473.841 158.507 472.841L152.307 445.948L146.813 469.828L143.8 456.721L140.133 472.627C138.027 472.733 135.907 472.895 133.787 473.095L126.76 442.615L119.267 475.203C114.881 476.068 110.48 477.121 106.067 478.413C68.16 489.508 33.4933 508.935 0 530.295V667.668H1000V406.895L995 388.816L990.813 406.988Z" fill="url(#paint9_linear)"/>
<path d="M965.421 598.215L951.064 573.067L941.46 603L934.428 586.277L926.835 610.887C925.907 610.923 924.979 610.963 924.051 610.999L914.423 568.825L909.853 597.821L900.4 556.411L891.573 612.425C891.532 612.428 891.491 612.429 891.449 612.432L886.511 593.988L881.759 612.919C868.693 613.589 855.605 614.332 842.504 615.144L835.187 594.211L831.085 609.06L823.907 582.908L818.78 615.448L813.975 601.163L809.299 617.348C804.552 617.684 799.804 618.025 795.057 618.377L792.329 606.429L789.76 618.772C787.859 618.916 785.957 619.064 784.059 619.209L778.307 594.016L773.155 620.063C768.712 620.416 764.271 620.777 759.833 621.144L756.255 610.776L752.747 621.736C733.704 623.345 714.709 625.083 695.807 626.936L689.041 605.991L683.667 625.387L674.085 600.308L664.899 630.076C661.227 630.463 657.56 630.852 653.897 631.245L649.649 612.635L646.592 632.037C645.388 632.169 644.183 632.3 642.98 632.433L635.627 600.223L630.329 633.847C614.991 635.579 599.748 637.38 584.633 639.245L576.18 620.021L570.764 637.871L566.857 625.704L563.26 641.937C544.227 644.379 525.42 646.917 506.879 649.537L497.141 613.309L488.261 652.207C484.275 652.788 480.301 653.372 476.341 653.961L474.311 644.972L471.74 654.644C464.895 655.668 458.093 656.703 451.337 657.747L437.665 613.443L422.847 652.228L414.535 622.232L402.763 658.676C391.94 657.027 381.267 655.439 370.741 653.908L359.213 617.883L347.911 650.636C344.055 650.093 340.212 649.557 336.399 649.029L325.109 591.963L312.811 645.832C312.068 645.735 311.319 645.632 310.579 645.533L303.423 611.16L296.012 643.625C291.012 642.976 286.048 642.341 281.131 641.721L269.948 603.016L262.517 625.107L254.588 574.784L243.487 615.228L237.144 592.263L222.869 633.096L210.516 633.377C195.535 631.728 181.036 630.209 167.032 628.812L157.769 591.92L150.131 620.455L136.289 533.807L121.925 599.472L114.603 553.005L98.7187 622.583C98.0667 622.529 97.4067 622.475 96.7573 622.421L83.664 579.995L72.7893 605.856L57.936 559.564L35.7333 598.456L8.50798 477.445C8.50798 477.445 4.98 489.435 0 506.46V667.668H1000V577.3C992.449 551.184 983.025 519.967 983.025 519.967L965.421 598.215Z" fill="#2C0C19"/>
<path d="M513.473 621.622C512.896 622.212 512.401 622.864 511.995 623.56L511.375 623.238C511.285 622.841 510.909 622.568 510.497 622.616C510.056 622.668 509.739 623.068 509.791 623.509C509.843 623.95 510.243 624.266 510.684 624.214C510.772 624.205 510.853 624.18 510.929 624.145L511.531 624.457C511.196 625.196 510.953 625.976 510.812 626.782L511.807 626.957C512.113 625.216 512.94 623.616 514.196 622.328L513.473 621.622Z" fill="#F9FAFC"/>
<path d="M520.789 618.552C520.561 618.552 520.334 618.561 520.109 618.576L520.011 617.741C520.261 617.541 520.406 617.221 520.366 616.881C520.305 616.357 519.829 615.981 519.306 616.042C518.781 616.105 518.406 616.58 518.469 617.104C518.507 617.442 518.719 617.718 519.007 617.856L519.105 618.688C518.153 618.842 517.234 619.13 516.359 619.549L516.795 620.461C518.039 619.864 519.383 619.564 520.789 619.564C521.45 619.564 522.113 619.634 522.755 619.773L522.97 618.785C522.257 618.632 521.522 618.552 520.789 618.552Z" fill="#F9FAFC"/>
<path d="M529.593 621.948C530.034 621.893 530.347 621.492 530.293 621.051C530.238 620.609 529.838 620.297 529.398 620.351C528.985 620.401 528.682 620.755 528.69 621.161L528.135 621.645C527.578 621.073 526.95 620.563 526.258 620.128L525.721 620.981C527.231 621.935 528.414 623.284 529.138 624.883L530.059 624.467C529.725 623.727 529.302 623.036 528.802 622.407L529.339 621.937C529.419 621.955 529.506 621.959 529.593 621.948Z" fill="#F9FAFC"/>
<path d="M520.06 632.162C519.545 632.193 519.028 632.207 518.517 632.207C517.344 632.207 516.206 632.127 515.213 631.969C514.693 631.886 514.085 631.762 513.52 631.579C514.914 634.061 517.612 635.746 520.702 635.746C524.51 635.746 527.72 633.191 528.637 629.742C527.728 630.341 526.629 630.842 525.358 631.239C523.786 631.729 521.953 632.047 520.06 632.162Z" fill="#F9FAFC"/>
<path d="M524.228 628.051C523.228 628.051 522.414 627.238 522.414 626.238C522.414 625.238 523.228 624.423 524.228 624.423C525.228 624.423 526.041 625.238 526.041 626.238C526.041 627.238 525.228 628.051 524.228 628.051ZM517.912 629.262C516.55 629.262 515.445 628.155 515.445 626.796C515.445 625.435 516.55 624.33 517.912 624.33C519.27 624.33 520.377 625.435 520.377 626.796C520.377 628.155 519.27 629.262 517.912 629.262V629.262ZM520.79 620.576C516.32 620.576 512.684 624.131 512.684 628.5C512.684 629.068 512.746 629.632 512.866 630.183C513.765 630.826 516.476 631.368 519.997 631.156C523.836 630.926 527.06 629.88 528.893 628.279C528.885 628.019 528.866 627.758 528.833 627.503C528.325 623.554 524.868 620.576 520.79 620.576" fill="#F9FAFC"/>
<path d="M542.126 623.062C541.734 622.907 541.053 622.65 540.284 622.746C539.549 622.837 539.158 623.199 539.158 624.089V625.242H542.129V627.533H539.158V634.805H536.584V627.533H534.797V625.242H536.584V624.058C536.584 621.817 537.777 620.347 540.008 620.347C540.865 620.347 541.55 620.51 542.128 620.758L542.126 623.062Z" fill="#F9FAFC"/>
<path d="M548.398 627.505C548.162 627.465 547.922 627.442 547.697 627.442C546.502 627.442 545.683 628.173 545.683 629.594V634.805H543.107V625.242H545.603V626.289C546.206 625.39 547.125 624.985 548.299 624.985C548.851 624.985 549.429 625.155 549.758 625.434L548.398 627.505Z" fill="#F9FAFC"/>
<path d="M551.801 629.124H556.034C555.798 627.9 555.057 627.209 553.951 627.209C552.738 627.209 552.029 627.939 551.801 629.124ZM558.619 630.012C558.619 630.308 558.601 630.663 558.57 630.88H551.791C552.067 632.263 553.035 632.864 554.249 632.864C555.077 632.864 555.975 632.529 556.665 631.947L558.175 633.604C557.09 634.6 555.709 635.055 554.101 635.055C551.169 635.055 549.137 633.061 549.137 630.051C549.137 627.041 551.11 624.988 553.973 624.988C556.725 624.988 558.61 627.032 558.619 630.012" fill="#F9FAFC"/>
<path d="M562.006 629.124H566.239C566.003 627.9 565.262 627.209 564.156 627.209C562.943 627.209 562.232 627.939 562.006 629.124ZM568.824 630.012C568.824 630.308 568.806 630.663 568.775 630.88H561.996C562.272 632.263 563.239 632.864 564.454 632.864C565.282 632.864 566.18 632.529 566.871 631.947L568.38 633.604C567.295 634.6 565.915 635.055 564.306 635.055C561.374 635.055 559.342 633.061 559.342 630.051C559.342 627.041 561.315 624.988 564.176 624.988C566.93 624.988 568.815 627.032 568.824 630.012" fill="#F9FAFC"/>
<path d="M572.383 630.021C572.383 631.53 573.379 632.655 574.84 632.655C576.359 632.655 577.307 631.481 577.307 630.021C577.307 628.559 576.359 627.385 574.84 627.385C573.379 627.385 572.383 628.51 572.383 630.021ZM579.952 630.021C579.952 632.891 577.959 635.053 575.324 635.053C574.04 635.053 573.132 634.549 572.512 633.81V638.754H569.945V625.243H572.463V626.299C573.083 625.521 574.001 624.987 575.313 624.987C577.959 624.987 579.952 627.149 579.952 630.021Z" fill="#F9FAFC"/>
<path d="M583.746 634.805H581.17V625.242H583.746V634.805ZM584.09 622.114C584.09 623.041 583.37 623.751 582.442 623.751C581.515 623.751 580.805 623.041 580.805 622.114C580.805 621.186 581.515 620.457 582.442 620.457C583.37 620.457 584.09 621.186 584.09 622.114Z" fill="#F9FAFC"/>
<path d="M588.043 628.647L591.644 625.242H594.803L590.164 629.742L594.832 634.805H591.664L588.043 630.937V634.805H585.467V620.595H588.043V628.647Z" fill="#F9FAFC"/>
<path d="M412.551 632.16V627.882C412.023 627.062 410.891 626.358 409.719 626.358C407.824 626.358 406.691 627.921 406.691 630.012C406.691 632.101 407.824 633.644 409.719 633.644C410.891 633.644 412.023 632.98 412.551 632.16V632.16ZM412.551 634.718V633.312C411.848 634.269 410.695 634.953 409.367 634.953C406.907 634.953 405.168 633.077 405.168 630.012C405.168 627.004 406.887 625.05 409.367 625.05C410.636 625.05 411.789 625.676 412.551 626.71V621.69H414.016V634.718H412.551Z" fill="#F9FAFC"/>
<path d="M420.538 626.261C418.526 626.261 417.53 627.96 417.453 629.405H423.643C423.623 628 422.686 626.261 420.538 626.261ZM415.91 629.992C415.91 627.257 417.862 625.05 420.558 625.05C423.409 625.05 425.089 627.277 425.089 630.109V630.48H417.453C417.57 632.257 418.819 633.741 420.85 633.741C421.925 633.741 423.018 633.312 423.761 632.55L424.463 633.508C423.526 634.445 422.257 634.953 420.714 634.953C417.921 634.953 415.91 632.941 415.91 629.992Z" fill="#F9FAFC"/>
<path d="M426.145 633.469L426.906 632.414C427.531 633.137 428.722 633.762 430.011 633.762C431.457 633.762 432.238 633.078 432.238 632.141C432.238 629.856 426.398 631.262 426.398 627.766C426.398 626.301 427.667 625.052 429.914 625.052C431.515 625.052 432.647 625.657 433.41 626.418L432.726 627.434C432.159 626.75 431.125 626.242 429.914 626.242C428.625 626.242 427.823 626.886 427.823 627.726C427.823 629.797 433.663 628.43 433.663 632.102C433.663 633.684 432.394 634.953 429.953 634.953C428.41 634.953 427.101 634.485 426.145 633.469Z" fill="#F9FAFC"/>
<path d="M435.556 625.285H437.021V634.719H435.556V625.285ZM435.303 622.961C435.303 622.415 435.752 621.965 436.279 621.965C436.827 621.965 437.275 622.415 437.275 622.961C437.275 623.508 436.827 623.937 436.279 623.937C435.752 623.937 435.303 623.508 435.303 622.961Z" fill="#F9FAFC"/>
<path d="M446.279 632.004V627.883C445.771 627.063 444.639 626.36 443.467 626.36C441.572 626.36 440.44 627.864 440.44 629.954C440.44 632.024 441.572 633.547 443.467 633.547C444.639 633.547 445.771 632.824 446.279 632.004V632.004ZM439.444 637.142L440.185 636.047C440.967 636.984 441.904 637.336 443.252 637.336C444.815 637.336 446.279 636.575 446.279 634.504V633.156C445.596 634.114 444.444 634.836 443.115 634.836C440.655 634.836 438.916 633 438.916 629.954C438.916 626.926 440.635 625.051 443.115 625.051C444.384 625.051 445.517 625.676 446.279 626.711V625.286H447.744V634.446C447.744 637.571 445.556 638.547 443.252 638.547C441.651 638.547 440.556 638.235 439.444 637.142" fill="#F9FAFC"/>
<path d="M456.552 634.719V628.547C456.552 626.887 455.714 626.359 454.443 626.359C453.291 626.359 452.198 627.063 451.651 627.824V634.719H450.186V625.285H451.651V626.652C452.315 625.871 453.603 625.051 455.01 625.051C456.982 625.051 458.018 626.047 458.018 628.097V634.719H456.552Z" fill="#F9FAFC"/>
<path d="M464.539 626.261C462.527 626.261 461.531 627.96 461.454 629.405H467.645C467.625 628 466.687 626.261 464.539 626.261ZM459.91 629.992C459.91 627.257 461.863 625.05 464.559 625.05C467.41 625.05 469.09 627.277 469.09 630.109V630.48H461.454C461.57 632.257 462.821 633.741 464.851 633.741C465.926 633.741 467.019 633.312 467.762 632.55L468.465 633.508C467.527 634.445 466.258 634.953 464.715 634.953C461.922 634.953 459.91 632.941 459.91 629.992Z" fill="#F9FAFC"/>
<path d="M477.801 632.16V627.882C477.273 627.062 476.141 626.358 474.969 626.358C473.074 626.358 471.941 627.921 471.941 630.012C471.941 632.101 473.074 633.644 474.969 633.644C476.141 633.644 477.273 632.98 477.801 632.16V632.16ZM477.801 634.718V633.312C477.098 634.269 475.945 634.953 474.617 634.953C472.157 634.953 470.418 633.077 470.418 630.012C470.418 627.004 472.137 625.05 474.617 625.05C475.886 625.05 477.039 625.676 477.801 626.71V621.69H479.266V634.718H477.801Z" fill="#F9FAFC"/>
<path d="M490.533 633.645C492.448 633.645 493.58 632.102 493.58 630.012C493.58 627.922 492.448 626.36 490.533 626.36C489.381 626.36 488.228 627.062 487.721 627.884V632.161C488.228 632.981 489.381 633.645 490.533 633.645ZM486.256 634.72V621.692H487.721V626.712C488.483 625.676 489.616 625.052 490.904 625.052C493.365 625.052 495.104 627.005 495.104 630.012C495.104 633.078 493.365 634.953 490.904 634.953C489.576 634.953 488.424 634.27 487.721 633.313V634.72H486.256Z" fill="#F9FAFC"/>
<path d="M496.705 637.082C496.92 637.179 497.272 637.238 497.506 637.238C498.15 637.238 498.58 637.023 498.913 636.242L499.538 634.816L495.592 625.284H497.174L500.318 633.019L503.444 625.284H505.045L500.318 636.632C499.752 637.999 498.794 638.527 497.545 638.547C497.233 638.547 496.744 638.488 496.472 638.41L496.705 637.082Z" fill="#F9FAFC"/>
</g>
<defs>
<linearGradient id="paint0_linear" x1="724.431" y1="132.126" x2="755.142" y2="277.414" gradientUnits="userSpaceOnUse">
<stop stop-color="#FFFAF2"/>
<stop offset="0.640799" stop-color="#FFE6C1"/>
<stop offset="0.997499" stop-color="#FFE6C1"/>
<stop offset="1" stop-color="#FFE6C1"/>
</linearGradient>
<linearGradient id="paint1_linear" x1="158.899" y1="127.398" x2="113.976" y2="231.066" gradientUnits="userSpaceOnUse">
<stop stop-color="#FFFAF2"/>
<stop offset="0.640799" stop-color="#FFE6C1"/>
<stop offset="0.997499" stop-color="#FFE6C1"/>
<stop offset="1" stop-color="#FFE6C1"/>
</linearGradient>
<linearGradient id="paint2_linear" x1="513.006" y1="216.901" x2="507.409" y2="315.415" gradientUnits="userSpaceOnUse">
<stop stop-color="#FFB05C"/>
<stop offset="1" stop-color="#FFC875"/>
</linearGradient>
<linearGradient id="paint3_linear" x1="798.386" y1="284.381" x2="805.476" y2="356.463" gradientUnits="userSpaceOnUse">
<stop stop-color="#FFFAF2"/>
<stop offset="0.997499" stop-color="#FFE6C1"/>
<stop offset="1" stop-color="#FFE6C1"/>
</linearGradient>
<linearGradient id="paint4_linear" x1="514.727" y1="313.572" x2="507.923" y2="415.634" gradientUnits="userSpaceOnUse">
<stop stop-color="#E8924D"/>
<stop offset="1" stop-color="#FFB05C"/>
</linearGradient>
<linearGradient id="paint5_linear" x1="344.736" y1="358.169" x2="317.537" y2="468.397" gradientUnits="userSpaceOnUse">
<stop stop-color="#FFFAF2"/>
<stop offset="0.861532" stop-color="#FFE6C1"/>
<stop offset="0.997499" stop-color="#FFE6C1"/>
<stop offset="1" stop-color="#FFE6C1"/>
</linearGradient>
<linearGradient id="paint6_linear" x1="640.499" y1="490.494" x2="722.228" y2="634.946" gradientUnits="userSpaceOnUse">
<stop stop-color="#BF5047"/>
<stop offset="0.879026" stop-color="#DE7E42"/>
<stop offset="1" stop-color="#DE7E42"/>
</linearGradient>
<linearGradient id="paint7_linear" x1="728.673" y1="462.056" x2="772.652" y2="572.762" gradientUnits="userSpaceOnUse">
<stop stop-color="#FFFAF2"/>
<stop offset="0.279637" stop-color="#FFE6C1"/>
<stop offset="0.997499" stop-color="#FFE6C1"/>
<stop offset="1" stop-color="#FFE6C1"/>
</linearGradient>
<linearGradient id="paint8_linear" x1="501.152" y1="364.603" x2="499.655" y2="584.673" gradientUnits="userSpaceOnUse">
<stop stop-color="#912838"/>
<stop offset="1" stop-color="#BF5047"/>
</linearGradient>
<linearGradient id="paint9_linear" x1="499.753" y1="524.304" x2="503.351" y2="713.224" gradientUnits="userSpaceOnUse">
<stop stop-color="#4A1623"/>
<stop offset="0.342036" stop-color="#4A1623"/>
<stop offset="1" stop-color="#912838"/>
</linearGradient>
<clipPath id="clip0">
<rect width="1000" height="666.667" fill="white" transform="translate(0 1)"/>
</clipPath>
</defs>
</svg>
